<?xml version="1.0" standalone="no"?>
<!DOCTYPE svg PUBLIC "-//W3C//DTD SVG 20010904//EN"
 "http://www.w3.org/TR/2001/REC-SVG-20010904/DTD/svg10.dtd">
<svg version="1.0" xmlns="http://www.w3.org/2000/svg"
 width="512.000000pt" height="512.000000pt" viewBox="0 0 512.000000 512.000000"
 preserveAspectRatio="xMidYMid meet">
<metadata>
Created by potrace 1.11, written by Peter Selinger 2001-2013
</metadata>
<g transform="translate(0.000000,512.000000) scale(0.100000,-0.100000)"
fill="#000000" stroke="none">
<path d="M2330 5024 c-496 -60 -890 -214 -1269 -497 -123 -92 -376 -345 -468
-468 -227 -304 -379 -637 -453 -991 -25 -122 -50 -331 -50 -424 l0 -72 116 0
c64 0 118 -3 122 -6 13 -14 -13 -18 -122 -18 l-116 0 0 -72 c0 -233 67 -558
167 -816 128 -327 299 -587 558 -845 388 -388 821 -608 1380 -702 157 -26 573
-26 730 0 540 90 976 307 1358 677 387 374 631 847 724 1405 26 157 26 573 0
730 -93 558 -337 1031 -724 1405 -380 368 -813 584 -1353 676 -91 15 -515 28
-600 18z m980 -264 c5 -19 11 -24 30 -22 17 1 21 -1 12 -7 -17 -10 -11 -47 6
-43 7 1 12 -4 12 -12 0 -7 9 -25 20 -39 l21 -26 40 21 c30 15 39 26 36 39 -5
17 -3 17 19 2 14 -9 24 -11 24 -4 0 5 7 8 15 5 8 -4 15 -1 15 7 0 7 3 9 7 6
12 -13 -27 -45 -48 -40 -14 4 -22 0 -25 -14 -3 -11 -19 -23 -37 -29 -22 -6
-33 -16 -35 -31 -2 -13 2 -23 9 -23 7 0 10 -10 6 -27 -7 -37 15 -69 35 -51 20
19 38 20 38 3 0 -8 -5 -15 -12 -15 -6 0 -4 -6 7 -13 12 -10 14 -16 7 -21 -7
-4 -17 -4 -23 -1 -7 5 -9 -4 -7 -26 2 -28 7 -34 28 -34 17 0 26 -6 28 -20 1
-11 14 -25 28 -32 21 -10 26 -9 30 5 14 44 29 62 50 62 12 0 24 5 26 12 3 9 6
9 11 1 4 -7 -5 -23 -20 -38 l-28 -25 23 -6 c12 -4 22 -10 22 -15 0 -5 7 -9 16
-9 8 0 12 -5 9 -11 -4 -6 -19 -7 -36 -4 -28 6 -35 -1 -30 -29 1 -5 -7 -19 -19
-31 -24 -25 -18 -35 22 -35 27 0 35 -9 21 -24 -4 -4 -8 -15 -8 -24 0 -10 -8
-17 -20 -17 -15 0 -20 -7 -20 -29 -1 -16 -6 -31 -13 -34 -7 -2 -12 -9 -12 -17
0 -7 -7 -18 -15 -25 -21 -18 -19 -27 13 -43 19 -9 33 -10 44 -4 11 7 22 5 39
-6 22 -16 24 -16 45 10 l22 28 30 -33 c18 -19 29 -39 25 -48 -7 -19 10 -18 46
4 23 14 27 21 20 35 -8 14 -6 17 16 17 21 0 25 4 25 31 0 28 1 29 16 15 8 -9
13 -20 9 -26 -3 -5 6 -12 20 -16 16 -4 24 -12 21 -20 -3 -7 1 -20 9 -28 19
-19 19 -36 0 -36 -10 0 -15 -11 -15 -35 0 -37 3 -39 35 -25 23 9 55 -14 55
-40 0 -9 9 -25 20 -35 16 -15 22 -16 35 -5 9 7 13 21 10 31 -4 13 1 19 24 24
33 7 49 23 34 34 -5 3 -12 14 -16 24 -5 12 -1 17 13 17 10 0 22 -5 26 -11 4
-8 9 -7 16 2 7 11 11 11 15 2 2 -7 12 -13 20 -13 10 0 14 -6 10 -20 -6 -23 11
-31 36 -16 12 8 22 8 37 -1 26 -17 52 -6 45 18 -3 10 -2 27 4 37 7 14 5 21
-11 31 -19 12 -19 13 -1 26 10 8 15 15 11 15 -13 0 31 40 44 40 6 0 2 -9 -11
-21 -17 -16 -19 -24 -11 -34 7 -8 9 -19 6 -24 -4 -5 -3 -12 2 -15 5 -3 7 -19
4 -37 -3 -23 -1 -30 7 -24 7 4 31 9 54 10 l42 4 -45 -20 c-38 -17 -43 -22 -30
-32 8 -7 21 -22 28 -35 10 -19 10 -22 -4 -22 -9 0 -25 9 -35 21 -21 24 -39 17
-39 -16 0 -12 -7 -25 -15 -29 -26 -9 -17 -33 15 -39 27 -6 43 -27 20 -27 -5 0
-10 -5 -10 -11 0 -18 -28 -39 -44 -33 -11 4 -16 1 -16 -10 0 -9 -12 -18 -27
-22 -16 -4 -31 -9 -35 -11 -12 -7 3 -31 23 -36 11 -3 19 -14 19 -26 0 -16 6
-20 23 -18 12 1 25 6 29 12 4 5 12 -3 17 -18 15 -38 14 -43 -10 -65 -17 -17
-18 -20 -5 -25 9 -4 16 -13 16 -22 0 -9 9 -15 25 -15 16 0 25 6 25 15 0 8 3
15 8 15 15 0 52 -31 52 -44 0 -16 27 -29 41 -20 6 3 7 14 4 23 -4 12 2 21 19
29 18 8 24 17 21 33 -2 12 -2 19 1 16 3 -3 6 -9 6 -14 0 -4 5 -14 11 -21 8
-10 8 -15 -1 -20 -6 -4 -15 -20 -21 -35 -10 -25 -9 -27 14 -27 14 0 25 -4 25
-10 0 -5 -7 -10 -15 -10 -8 0 -15 -7 -15 -16 0 -9 5 -12 12 -8 7 4 8 3 4 -4
-4 -6 -13 -9 -21 -5 -9 3 -15 -1 -15 -11 0 -20 -16 -21 -24 -1 -8 22 -33 8
-32 -18 1 -18 -6 -23 -35 -27 -30 -4 -35 -8 -30 -23 4 -10 11 -18 16 -18 11 1
10 -20 -1 -57 -3 -13 -3 -22 2 -21 23 4 35 -3 42 -22 8 -20 8 -20 35 5 16 14
29 26 31 26 9 0 1 -38 -12 -52 -10 -12 -11 -18 -4 -18 7 0 12 -5 12 -11 0 -6
-7 -8 -16 -5 -14 5 -15 4 -4 -9 7 -8 9 -16 4 -17 -8 -1 -47 -6 -84 -10 -17 -3
-19 -44 -3 -72 9 -17 11 -17 26 -1 16 15 17 15 17 -4 0 -11 -5 -23 -10 -26 -6
-4 -8 -10 -5 -15 8 -13 -22 -32 -42 -26 -10 3 -24 2 -32 -3 -16 -10 -6 -31 15
-31 17 0 18 -22 2 -38 -15 -15 -55 -16 -64 0 -4 6 -3 8 3 5 6 -4 17 1 24 10
11 13 11 17 2 20 -10 3 -10 10 -2 24 5 11 7 24 4 29 -4 6 7 10 24 10 25 0 29
3 24 18 -3 9 -11 22 -17 27 -13 12 -15 66 -2 58 4 -3 5 5 1 17 -6 20 -4 22 13
18 13 -4 27 1 37 12 16 17 15 20 -5 40 -12 12 -28 19 -36 16 -17 -7 -18 15 -1
33 10 11 9 12 -1 7 -10 -6 -11 -1 -6 18 4 16 2 26 -5 26 -6 0 -11 13 -11 29 0
17 -4 33 -10 36 -21 13 -10 24 15 15 21 -8 28 -4 55 29 33 42 36 51 19 51 -7
0 -19 9 -29 20 -15 17 -22 18 -49 9 -17 -6 -31 -16 -31 -22 0 -6 -6 -2 -14 8
-8 11 -12 23 -10 27 3 5 0 8 -5 8 -6 0 -11 5 -11 10 0 6 7 10 16 10 8 0 13 4
9 10 -3 5 -12 7 -19 4 -19 -7 -30 28 -12 38 8 5 13 15 10 23 -7 18 -44 20 -45
3 0 -7 -4 -2 -10 10 -5 13 -6 28 -3 34 3 5 -3 12 -15 15 -12 3 -24 16 -27 29
-3 13 -12 24 -19 24 -6 0 -20 8 -29 19 -16 17 -16 18 7 14 26 -5 87 21 87 37
0 6 7 10 15 10 13 0 14 9 10 50 -3 28 -2 50 3 50 5 0 12 9 15 19 6 23 -17 35
-40 23 -14 -8 -62 3 -89 21 -7 4 -14 0 -18 -8 -3 -8 -11 -15 -18 -15 -23 0
-47 -38 -50 -80 -3 -35 -5 -38 -15 -23 -7 9 -13 20 -13 24 0 4 -11 10 -25 13
-14 4 -25 13 -25 20 0 8 -9 16 -20 19 -12 3 -20 14 -20 26 0 21 -25 30 -32 10
-2 -6 -14 -1 -27 10 -13 12 -28 21 -32 21 -5 0 -4 11 1 25 6 15 6 27 0 30 -5
3 -6 13 -3 21 5 14 1 15 -28 9 -34 -7 -52 -22 -43 -36 10 -17 -14 -17 -32 -1
-10 10 -26 16 -35 14 -11 -2 -19 6 -23 23 -5 20 -12 25 -29 23 -12 -2 -21 -9
-20 -16 2 -6 -2 -12 -7 -12 -6 0 -10 4 -10 10 0 5 -7 7 -15 4 -9 -4 -15 0 -15
10 0 19 -16 21 -26 4 -5 -8 -10 -7 -18 4 -12 17 -66 22 -66 6 0 -5 -5 -6 -10
-3 -6 4 -8 11 -5 16 7 10 -8 13 -18 3 -6 -7 -97 -14 -97 -8 0 2 15 10 33 18
39 16 87 61 87 80 0 8 6 16 14 19 9 4 12 14 9 28 -4 14 0 25 11 31 20 11 21
28 1 28 -9 0 -12 6 -9 15 4 8 1 22 -6 30 -11 13 -10 18 5 29 22 16 13 49 -12
44 -25 -4 -43 10 -43 33 0 11 -6 19 -12 18 -7 -1 -26 3 -41 9 -16 7 -33 12
-38 12 -7 0 9 43 24 63 1 2 -11 16 -27 31 -16 17 -31 25 -35 19 -3 -6 -15 -13
-26 -17 -23 -7 -32 -51 -14 -72 9 -11 6 -14 -17 -15 -16 -1 -32 -1 -36 0 -5 0
-8 -4 -8 -10 0 -6 -9 -8 -20 -4 -11 4 -20 2 -20 -4 0 -6 -8 -20 -17 -31 -12
-14 -20 -16 -30 -9 -7 6 -20 9 -28 5 -19 -7 -20 -35 -1 -42 18 -7 0 -63 -28
-83 -17 -13 -17 -15 -2 -23 9 -5 16 -19 16 -32 0 -26 28 -87 44 -98 6 -4 7
-10 3 -14 -4 -4 16 -18 43 -31 28 -13 50 -25 50 -27 0 -2 -36 -3 -80 -4 -53 0
-80 4 -81 12 0 6 -5 0 -10 -13 -7 -19 -12 -22 -21 -13 -16 16 -38 15 -38 -1 0
-7 -9 -13 -20 -14 -14 -1 -20 4 -20 20 0 18 -2 19 -10 7 -5 -8 -10 -11 -10 -6
0 5 -7 3 -15 -4 -9 -7 -13 -20 -10 -28 4 -10 0 -13 -15 -9 -11 3 -20 2 -20 -3
0 -16 -39 -18 -45 -1 -3 9 -16 21 -30 28 -22 10 -27 8 -35 -8 -6 -10 -9 -31
-8 -47 2 -21 -1 -27 -17 -27 -12 -1 -19 -7 -17 -15 3 -12 1 -13 -9 -2 -20 19
-36 14 -43 -14 -5 -20 -11 -24 -28 -18 -14 4 -18 2 -14 -5 4 -6 1 -11 -6 -11
-7 0 -21 -11 -33 -25 l-20 -26 0 43 c0 31 -7 51 -23 68 -12 13 -25 21 -28 17
-4 -4 -13 -2 -20 4 -8 7 -14 7 -19 -1 -9 -15 -35 -12 -35 5 0 20 -36 19 -44
-2 -4 -9 -2 -21 3 -26 6 -6 7 -15 2 -21 -14 -18 -22 -66 -11 -66 5 0 10 -7 10
-16 0 -21 19 -39 55 -51 l29 -9 -32 -15 c-18 -7 -32 -20 -32 -26 0 -7 -6 -13
-13 -13 -8 0 -19 -10 -25 -22 -6 -13 -11 -17 -11 -10 -1 18 -38 15 -45 -5 -4
-9 -1 -20 6 -25 10 -6 8 -8 -4 -8 -10 0 -18 -7 -18 -15 0 -8 -4 -15 -10 -15
-5 0 -10 -7 -10 -15 0 -8 -5 -15 -12 -15 -6 0 -9 3 -5 6 3 4 -4 14 -16 24 -17
14 -26 16 -42 7 -11 -6 -26 -10 -33 -8 -11 2 -12 -6 -7 -31 9 -39 22 -58 41
-58 19 0 17 -11 -7 -40 -11 -14 -18 -18 -14 -10 4 8 -3 4 -14 -9 -12 -13 -21
-35 -22 -50 0 -17 -3 -21 -7 -11 -9 19 -30 24 -47 10 -10 -8 -14 -7 -18 2 -3
8 -6 6 -6 -5 -1 -26 17 -57 34 -57 13 0 13 -3 3 -20 -7 -11 -19 -18 -27 -15
-11 4 -11 2 -2 -9 14 -16 8 -21 -36 -31 l-32 -6 27 -24 c15 -14 21 -25 15 -25
-7 0 -13 -9 -13 -21 0 -11 -3 -18 -7 -16 -5 3 -19 0 -33 -5 -24 -9 -24 -10 -5
-21 23 -14 29 -47 9 -47 -10 0 -13 -8 -10 -26 4 -22 2 -25 -14 -21 -23 6 -26
-3 -8 -21 9 -9 8 -15 -8 -27 -19 -14 -19 -14 1 -15 11 0 16 -4 10 -8 -6 -4
-11 -20 -12 -37 -1 -16 -4 -39 -6 -50 -3 -11 -6 -51 -7 -90 l-2 -70 -14 50
c-8 28 -15 58 -16 68 -1 9 -7 17 -12 17 -5 0 -6 3 -3 6 4 4 -3 20 -14 35 -11
16 -18 29 -14 29 3 0 -4 10 -15 22 -11 12 -18 28 -16 35 3 8 -2 13 -14 13 -11
0 -20 6 -20 13 0 7 -10 17 -22 22 -15 6 -22 17 -20 29 3 15 -1 18 -17 13 -12
-3 -21 -1 -21 4 0 5 -7 9 -16 9 -11 0 -13 6 -9 19 7 24 -11 37 -30 21 -9 -7
-15 -8 -20 0 -3 5 -17 10 -30 10 -17 0 -23 4 -19 14 3 8 1 22 -4 32 -8 15 -11
15 -31 -5 -15 -15 -28 -20 -39 -15 -21 10 -30 11 -65 13 -18 1 -26 5 -21 12 5
9 -7 43 -23 68 -2 2 -14 -8 -27 -22 -16 -17 -22 -33 -19 -47 5 -18 3 -19 -20
-11 -18 7 -27 7 -31 -2 -5 -9 -7 -9 -12 1 -8 18 -34 15 -34 -4 0 -12 -6 -15
-24 -10 -15 4 -26 1 -29 -8 -3 -7 -14 -15 -24 -18 -13 -4 -18 1 -19 18 -2 29
-26 54 -51 54 -11 0 -24 5 -30 11 -13 13 -36 2 -27 -12 3 -6 -1 -18 -10 -28
-20 -22 -8 -63 23 -83 19 -12 19 -13 -10 -30 -16 -10 -29 -22 -29 -28 0 -7 -6
-8 -19 -1 -16 9 -18 8 -14 -9 6 -24 -16 -48 -39 -42 -10 2 -24 2 -32 -1 -19
-8 -9 -47 13 -47 12 -1 11 -3 -5 -13 -12 -7 -19 -18 -17 -25 3 -7 1 -12 -4
-11 -27 5 -33 -1 -22 -22 9 -17 8 -23 -2 -30 -8 -4 -15 -19 -16 -31 -1 -13 -6
-43 -11 -68 l-9 -45 -13 27 c-7 14 -23 29 -36 32 -13 4 -24 11 -24 16 0 5 -7
7 -15 4 -8 -4 -22 -1 -29 5 -10 8 -15 9 -18 1 -3 -11 -33 -16 -57 -9 -8 2 -14
-5 -16 -17 -1 -12 -9 -29 -18 -39 -9 -9 -17 -24 -17 -34 0 -14 -6 -17 -23 -14
-32 6 -55 -21 -36 -43 7 -9 22 -14 36 -11 17 3 23 0 23 -14 0 -10 8 -25 17
-34 9 -10 17 -27 18 -39 2 -12 8 -19 16 -17 24 7 54 2 57 -9 3 -8 8 -7 18 1 7
6 21 9 29 5 8 -3 15 -1 15 4 0 5 11 12 24 16 13 3 29 18 36 32 l13 27 9 -45
c5 -25 10 -55 11 -68 1 -12 8 -27 16 -31 10 -7 11 -13 2 -30 -11 -21 -5 -27
22 -22 5 1 7 -4 4 -11 -2 -7 5 -18 17 -25 16 -10 17 -12 5 -13 -22 0 -32 -39
-13 -47 8 -3 22 -3 32 -1 23 6 45 -18 39 -42 -4 -17 -2 -18 14 -9 13 7 19 6
19 -1 0 -6 13 -18 29 -28 29 -17 29 -18 10 -30 -31 -20 -43 -61 -23 -83 9 -10
13 -22 10 -28 -9 -14 14 -25 27 -12 6 6 19 11 30 11 25 0 49 25 51 54 1 17 6
22 19 18 10 -3 21 -11 24 -18 3 -9 14 -12 29 -8 18 5 24 2 24 -10 0 -19 26
-22 34 -3 5 9 7 9 12 0 4 -9 13 -9 31 -2 23 8 25 7 20 -11 -3 -14 3 -30 19
-47 13 -14 25 -24 27 -22 16 25 28 59 23 68 -5 7 3 11 21 12 35 2 44 3 65 13
11 5 24 0 39 -15 20 -20 23 -20 31 -5 5 10 7 24 4 32 -4 10 2 14 19 14 13 0
27 5 30 10 5 8 11 7 20 0 19 -16 37 -3 30 21 -4 13 -2 19 9 19 9 0 16 4 16 9
0 5 9 7 21 4 16 -5 20 -2 17 13 -2 12 5 23 20 29 12 5 22 15 22 22 0 7 9 13
20 13 12 0 17 5 14 13 -2 7 5 23 16 35 11 12 18 22 15 22 -4 0 3 13 14 29 11
15 18 31 14 35 -3 3 -2 6 3 6 5 0 11 8 12 18 1 9 8 40 16 67 l14 50 2 -70 c1
-38 4 -79 7 -90 2 -11 5 -33 6 -50 1 -16 6 -33 12 -37 6 -4 1 -8 -10 -8 -20
-1 -20 -1 -1 -15 16 -12 17 -18 8 -27 -18 -18 -15 -27 8 -21 16 4 18 1 14 -21
-3 -18 0 -26 10 -26 20 0 14 -33 -9 -47 -19 -11 -19 -12 5 -21 14 -5 28 -8 33
-5 4 2 7 -5 7 -16 0 -12 6 -21 13 -21 6 0 0 -11 -15 -25 l-27 -24 32 -6 c44
-10 50 -15 36 -31 -9 -11 -9 -13 2 -9 8 3 20 -4 27 -15 10 -17 10 -20 -3 -20
-17 0 -35 -31 -34 -57 0 -11 3 -13 6 -5 4 9 8 10 18 2 17 -14 38 -9 47 10 4
10 7 6 7 -11 1 -15 10 -37 22 -50 11 -13 18 -17 14 -9 -4 8 3 4 14 -10 24 -29
26 -40 7 -40 -19 0 -32 -19 -41 -58 -5 -25 -4 -33 7 -31 7 2 22 -2 33 -8 16
-9 25 -7 42 7 12 10 19 20 16 24 -4 3 -1 6 5 6 7 0 12 -7 12 -15 0 -8 5 -15
10 -15 6 0 10 -7 10 -15 0 -8 8 -15 18 -15 12 0 14 -2 4 -8 -7 -5 -10 -16 -6
-25 7 -20 44 -23 45 -4 0 6 5 2 11 -11 6 -12 17 -22 25 -22 7 0 13 -6 13 -13
0 -6 14 -19 32 -26 l32 -15 -29 -9 c-36 -12 -55 -30 -55 -51 0 -9 -5 -16 -10
-16 -11 0 -3 -49 11 -64 5 -5 4 -15 -1 -21 -6 -7 -8 -20 -4 -29 8 -20 44 -21
44 -1 0 17 26 20 35 5 5 -8 11 -8 19 -1 7 6 16 8 20 4 3 -4 16 4 28 17 16 17
23 37 23 68 l0 43 20 -26 c12 -14 26 -25 33 -25 7 0 10 -5 6 -11 -4 -7 0 -9
14 -5 17 6 23 2 28 -18 7 -28 23 -33 43 -13 10 10 12 9 9 -3 -2 -8 5 -14 17
-15 16 0 19 -6 17 -27 -1 -16 2 -37 8 -47 8 -16 13 -18 35 -8 14 7 27 19 30
28 6 17 45 15 45 -1 0 -5 9 -6 20 -3 15 4 19 1 15 -9 -3 -8 1 -21 10 -28 8 -7
15 -9 15 -4 0 5 5 2 10 -6 8 -12 10 -11 10 7 0 16 6 21 20 20 11 -1 20 -7 20
-14 0 -16 22 -17 38 -1 9 9 14 6 21 -13 5 -13 10 -19 10 -13 1 8 28 12 81 12
44 -1 80 -2 80 -4 0 -2 -22 -14 -50 -27 -27 -13 -47 -27 -43 -31 4 -4 3 -10
-3 -14 -16 -11 -44 -72 -44 -98 0 -13 -7 -27 -16 -32 -15 -8 -15 -10 2 -23 28
-20 46 -76 28 -83 -19 -7 -18 -35 1 -42 8 -4 21 -1 28 5 10 7 18 5 30 -9 9
-11 17 -25 17 -31 0 -6 9 -8 20 -4 11 4 20 2 20 -4 0 -6 3 -10 8 -10 4 1 20 1
36 0 23 -1 26 -4 17 -15 -18 -21 -9 -65 14 -72 11 -4 23 -11 26 -17 4 -6 18 1
33 16 31 31 31 29 11 67 -9 17 -11 30 -6 30 5 0 22 5 38 12 15 6 34 10 41 9 6
-1 12 7 12 18 0 23 18 37 43 33 25 -5 34 28 12 44 -15 11 -16 16 -5 29 7 8 10
22 6 30 -3 9 0 15 9 15 20 0 19 17 -1 28 -11 6 -15 17 -11 31 3 14 0 24 -9 28
-8 3 -14 11 -14 19 0 19 -48 64 -87 80 -18 8 -33 16 -33 18 0 6 91 -1 97 -8
10 -10 25 -7 18 3 -3 5 -1 12 5 16 5 3 10 2 10 -3 0 -16 54 -11 66 6 8 11 13
12 18 4 10 -17 26 -15 26 4 0 10 6 14 15 10 8 -3 15 -1 15 4 0 6 4 10 10 10 5
0 9 -6 7 -12 -1 -7 8 -14 20 -16 17 -2 24 3 29 23 4 17 12 25 23 23 9 -2 25 4
35 14 18 16 42 16 32 -1 -9 -14 9 -29 43 -36 29 -6 33 -5 28 9 -3 8 -2 18 3
21 6 3 6 15 0 30 -5 14 -6 25 -1 25 4 0 19 9 32 21 13 11 25 16 27 10 7 -20
32 -11 32 10 0 12 8 23 20 26 11 3 20 11 20 19 0 7 11 16 25 20 14 3 25 9 25
13 0 4 6 15 13 24 10 15 12 12 15 -23 3 -42 27 -80 50 -80 7 0 15 -7 18 -15 4
-8 11 -12 18 -8 27 18 75 29 89 21 23 -12 46 0 40 23 -3 10 -10 19 -15 19 -5
0 -6 22 -3 50 4 41 3 50 -10 50 -8 0 -15 4 -15 10 0 16 -61 42 -87 37 -23 -4
-23 -3 -7 14 9 11 23 19 29 19 7 0 16 11 19 24 3 13 15 26 27 29 12 3 18 10
15 15 -3 6 -2 21 3 34 6 12 10 17 10 11 1 -18 38 -16 45 2 3 8 -2 18 -10 23
-18 10 -7 45 12 38 7 -3 16 -1 19 4 4 6 -1 10 -9 10 -9 0 -16 5 -16 10 0 6 5
10 11 10 5 0 8 3 5 8 -2 4 2 16 10 27 8 10 14 14 14 8 0 -6 14 -16 31 -22 27
-9 34 -8 49 9 10 11 22 20 29 20 17 0 14 9 -19 51 -27 33 -34 37 -55 29 -25
-9 -36 2 -15 15 6 3 10 19 10 36 0 16 5 29 11 29 7 0 9 10 5 26 -5 19 -4 24 6
18 10 -5 11 -4 1 7 -17 18 -16 40 1 33 8 -3 24 4 36 16 20 20 21 23 5 40 -10
11 -24 16 -37 12 -17 -4 -19 -2 -13 18 4 12 3 20 -1 17 -13 -8 -11 46 2 58 6
6 14 18 17 28 5 14 1 17 -24 17 -17 0 -28 4 -24 10 3 5 1 18 -4 29 -8 14 -8
21 2 24 9 3 9 7 -2 20 -7 9 -18 14 -24 10 -6 -3 -7 -1 -3 5 9 16 49 15 64 0
16 -16 15 -38 -2 -38 -21 0 -31 -21 -15 -31 8 -5 22 -6 32 -3 20 6 50 -13 42
-26 -3 -5 -1 -11 5 -15 5 -3 10 -15 10 -26 0 -19 -1 -19 -17 -4 -15 16 -17 16
-26 -1 -16 -28 -14 -69 3 -72 37 -4 76 -9 84 -10 5 -1 3 -9 -4 -17 -11 -13
-10 -14 4 -9 9 3 16 1 16 -5 0 -6 -5 -11 -12 -11 -7 0 -6 -6 4 -17 13 -15 21
-53 12 -53 -2 0 -15 12 -31 26 -27 25 -27 25 -35 5 -7 -19 -19 -26 -42 -22 -5
1 -5 -8 -2 -21 11 -37 12 -53 1 -55 -5 -1 -12 -10 -16 -20 -5 -15 0 -19 30
-23 29 -4 36 -9 35 -27 -1 -26 24 -40 32 -18 8 20 24 19 24 -1 0 -10 6 -14 15
-11 8 4 17 1 21 -5 4 -7 3 -8 -4 -4 -7 4 -12 1 -12 -8 0 -9 7 -16 15 -16 8 0
15 -4 15 -10 0 -5 -11 -10 -25 -10 -23 0 -24 -2 -14 -27 6 -15 15 -31 21 -34
6 -4 7 -12 2 -20 -5 -8 -9 -17 -9 -21 0 -3 -3 -10 -7 -14 -4 -3 -5 3 -3 15 3
16 -3 25 -21 33 -17 8 -23 17 -19 29 3 9 2 20 -4 23 -14 9 -41 -4 -41 -20 0
-13 -37 -44 -52 -44 -5 0 -8 7 -8 15 0 9 -9 15 -25 15 -16 0 -25 -6 -25 -15 0
-9 -7 -18 -16 -22 -13 -5 -12 -8 5 -25 24 -22 25 -27 10 -65 -5 -15 -13 -23
-17 -18 -4 6 -17 11 -29 12 -17 2 -23 -2 -23 -18 0 -12 -8 -23 -19 -26 -20 -5
-35 -29 -23 -36 4 -2 19 -7 35 -11 15 -4 27 -13 27 -22 0 -11 5 -14 16 -10 16
6 44 -15 44 -33 0 -6 5 -11 10 -11 23 0 7 -21 -20 -26 -32 -7 -41 -31 -15 -40
8 -4 15 -17 15 -29 0 -33 18 -40 39 -16 10 12 26 21 35 21 14 0 14 -3 4 -22
-7 -13 -20 -28 -28 -35 -13 -10 -8 -15 30 -32 l45 -20 -42 4 c-23 1 -47 6 -54
10 -8 6 -10 -1 -7 -24 3 -18 1 -34 -4 -37 -5 -3 -6 -10 -2 -15 3 -5 1 -16 -6
-24 -8 -10 -6 -18 11 -34 13 -12 17 -21 11 -21 -13 0 -57 40 -44 40 4 0 -1 7
-11 15 -18 13 -18 14 1 26 16 10 18 17 11 31 -6 10 -7 27 -4 37 7 24 -19 35
-45 18 -15 -9 -25 -9 -38 -1 -24 15 -41 7 -35 -16 4 -14 0 -20 -10 -20 -8 0
-18 -6 -20 -12 -4 -10 -8 -10 -15 1 -7 9 -12 10 -16 2 -4 -6 -16 -11 -26 -11
-14 0 -18 5 -13 18 4 9 11 20 16 23 15 11 -1 27 -34 34 -23 5 -28 11 -24 24 3
10 -1 24 -10 31 -13 11 -19 10 -35 -5 -11 -10 -20 -26 -20 -35 0 -26 -32 -49
-55 -40 -32 14 -35 12 -35 -25 0 -24 5 -35 15 -35 19 0 19 -17 0 -36 -8 -8
-12 -21 -9 -28 3 -8 -5 -16 -21 -20 -14 -4 -23 -11 -20 -16 4 -6 -1 -17 -9
-26 -15 -14 -16 -13 -16 15 0 27 -4 31 -25 31 -22 0 -24 3 -16 17 7 14 3 21
-20 35 -36 22 -53 23 -46 4 4 -9 -7 -29 -25 -48 l-30 -33 -22 28 c-21 26 -23
26 -45 10 -17 -11 -28 -13 -39 -6 -11 6 -25 5 -44 -4 -32 -16 -34 -25 -13 -43
8 -7 15 -18 15 -25 0 -8 5 -15 12 -17 7 -3 12 -18 13 -34 0 -22 5 -29 20 -29
12 0 20 -7 20 -17 0 -9 4 -20 8 -24 14 -15 6 -24 -21 -24 -40 0 -46 -10 -22
-35 12 -12 20 -26 19 -31 -5 -28 2 -35 30 -29 17 3 32 2 36 -4 3 -6 -1 -11 -9
-11 -9 0 -16 -4 -16 -9 0 -5 -10 -11 -22 -15 l-23 -6 28 -25 c15 -15 24 -31
20 -38 -5 -8 -8 -8 -11 1 -2 7 -14 12 -26 12 -21 0 -36 18 -50 62 -4 14 -9 15
-30 5 -14 -7 -27 -21 -28 -32 -2 -14 -11 -20 -28 -20 -21 0 -26 -6 -28 -34 -2
-22 0 -31 7 -26 6 3 16 3 23 -1 7 -5 5 -11 -7 -21 -11 -7 -13 -13 -7 -13 7 0
12 -7 12 -15 0 -17 -18 -16 -38 3 -20 18 -42 -14 -35 -50 4 -18 1 -28 -6 -28
-7 0 -11 -10 -9 -22 2 -16 13 -26 35 -32 18 -6 34 -18 37 -29 3 -14 11 -18 25
-14 21 5 60 -27 48 -40 -4 -3 -7 -1 -7 6 0 8 -7 11 -15 7 -8 -3 -15 0 -15 5 0
7 -10 5 -24 -4 -22 -15 -24 -15 -19 2 3 13 -6 24 -36 39 l-40 21 -21 -26 c-11
-14 -20 -32 -20 -39 0 -8 -5 -13 -12 -11 -17 3 -23 -34 -6 -44 9 -6 5 -8 -12
-7 -19 2 -25 -3 -30 -22 -3 -17 -13 -26 -28 -28 -20 -3 -23 0 -20 24 2 15 8
29 15 31 7 3 9 -3 6 -16 -3 -12 -1 -21 6 -21 6 0 11 6 11 14 0 8 7 22 16 30 8
9 14 24 13 33 -4 40 1 55 16 49 9 -3 15 0 15 10 0 8 6 17 14 20 26 10 26 35 0
61 -20 20 -23 28 -12 34 10 6 9 11 -7 23 -25 19 -32 20 -39 1 -7 -19 -26 -20
-26 -1 0 8 -12 16 -27 18 l-28 4 28 14 c30 15 31 18 17 56 -7 18 -14 24 -21
17 -5 -5 -21 -8 -33 -6 -17 4 -22 10 -19 24 5 16 0 19 -31 19 -28 0 -35 -4
-34 -18 3 -35 -2 -52 -16 -52 -8 0 -17 -8 -20 -17 -3 -10 -3 -1 0 20 5 36 4
37 -25 37 -16 0 -33 5 -36 10 -3 6 -18 8 -33 5 -15 -3 -21 -2 -14 1 6 3 12 13
12 21 0 10 6 13 16 9 9 -3 27 -9 40 -12 25 -6 29 3 24 50 -1 10 3 22 8 25 6 3
12 15 14 26 2 17 -2 19 -24 17 -22 -3 -28 1 -28 16 0 11 -7 25 -16 33 -14 11
-14 13 0 21 9 5 21 6 27 2 17 -10 28 16 22 53 -4 26 -2 33 11 33 9 0 16 8 16
19 0 10 7 24 15 31 22 18 19 28 -14 45 -23 11 -30 12 -34 2 -3 -9 -10 -9 -27
2 -20 12 -25 11 -35 -3 -12 -16 -65 -23 -65 -8 -1 4 -10 18 -21 31 -15 19 -22
22 -32 12 -7 -7 -13 -15 -13 -19 -9 -43 -16 -48 -70 -48 -38 -1 -54 3 -54 12
0 7 5 14 12 16 7 3 3 12 -11 25 -20 19 -21 22 -6 37 25 25 15 52 -18 48 -21
-3 -29 2 -38 22 -7 14 -18 26 -25 26 -17 0 -39 -39 -35 -62 1 -11 -4 -18 -14
-18 -8 0 -18 -6 -21 -14 -7 -17 -52 -16 -62 2 -7 9 -14 9 -35 -1 -32 -14 -35
-37 -6 -55 14 -9 18 -19 14 -32 -5 -15 -2 -20 12 -21 14 0 14 -2 3 -6 -8 -3
-21 -12 -27 -21 -12 -14 -13 -14 -14 4 -1 10 -1 25 0 32 1 6 -2 12 -8 12 -5 0
-17 8 -26 17 -16 16 -18 15 -36 -8 l-19 -24 0 28 c0 15 -4 27 -10 27 -5 0 -10
-4 -10 -8 0 -4 -14 -13 -30 -19 -22 -8 -28 -16 -24 -28 6 -14 4 -16 -12 -8
-10 6 -26 8 -34 6 -10 -3 -9 0 3 7 9 6 15 16 11 21 -3 5 -2 8 3 7 5 -2 24 9
41 24 l33 27 -20 20 c-13 13 -27 18 -37 14 -11 -4 -15 -3 -10 5 3 6 2 13 -4
17 -5 3 -10 11 -10 16 0 6 5 7 10 4 6 -3 10 -1 10 5 0 6 5 8 13 3 6 -4 17 -8
22 -10 6 -1 20 -5 33 -9 12 -3 22 -2 23 2 0 5 2 22 4 37 3 21 0 27 -13 25 -11
-2 -17 4 -18 18 -1 12 -4 26 -8 32 -8 14 23 52 38 46 14 -5 40 51 31 66 -4 6
-15 8 -25 5 -28 -9 -60 16 -60 47 0 34 -6 36 -56 24 -43 -11 -50 -21 -32 -43
12 -15 13 -14 -24 -19 -24 -2 -28 1 -28 22 0 15 -4 23 -11 19 -5 -4 -19 1 -30
11 -15 14 -22 15 -28 6 -8 -13 -41 -6 -41 8 0 4 10 10 21 13 21 6 21 6 3 24
-17 17 -17 18 4 21 14 2 22 10 22 24 0 15 5 19 20 15 15 -4 20 0 20 15 0 11 7
27 16 35 14 15 14 18 -5 36 -18 19 -22 19 -38 6 -23 -20 -46 -14 -58 14 -6 12
-17 22 -25 23 -30 2 -32 4 -21 17 6 8 8 16 5 20 -5 4 16 20 54 43 1 0 0 9 -4
18 -3 9 -10 14 -14 11 -11 -7 -60 41 -60 59 0 8 7 19 15 24 14 7 12 12 -10 36
-21 22 -23 31 -14 48 8 14 8 23 0 31 -6 6 -11 24 -11 39 0 27 -30 68 -49 68
-14 0 -67 -52 -74 -72 -4 -10 -13 -18 -22 -18 -9 0 -18 -12 -22 -31 -5 -26 -9
-30 -29 -25 -17 5 -24 2 -24 -9 0 -8 -5 -15 -11 -15 -5 0 -9 -8 -8 -17 3 -35
-1 -42 -18 -36 -10 4 -22 12 -26 20 -13 21 -24 15 -30 -17 -4 -16 -13 -30 -21
-30 -7 0 -19 -7 -26 -15 -11 -13 -10 -18 3 -28 14 -11 14 -14 2 -31 -12 -16
-15 -17 -15 -4 0 9 -9 18 -20 21 -15 4 -20 14 -20 42 0 34 -2 36 -27 33 -21
-2 -29 -10 -37 -35 -5 -18 -13 -33 -17 -33 -5 0 -9 -9 -9 -20 0 -22 -16 -27
-22 -8 -3 8 -11 7 -28 -5 -14 -9 -32 -17 -42 -17 -21 0 -21 -1 -8 -34 5 -14
16 -26 25 -26 8 0 15 -7 15 -16 0 -8 -4 -12 -10 -9 -5 3 -10 1 -10 -4 0 -6 -4
-11 -9 -11 -5 0 -8 8 -7 18 1 12 -7 18 -26 20 -27 3 -40 22 -16 22 9 0 9 3 1
11 -17 17 -3 49 23 55 31 8 34 53 4 61 -11 3 -20 12 -20 19 0 19 -46 18 -54
-2 -8 -20 -26 -9 -26 17 0 10 -6 19 -14 19 -20 0 -59 -57 -52 -75 8 -22 -11
-18 -26 4 -8 11 -19 17 -24 13 -11 -7 -25 -54 -25 -85 0 -9 -4 -15 -10 -12 -5
4 -9 17 -9 30 0 31 -34 43 -57 20 -12 -13 -27 -16 -59 -11 -33 4 -45 1 -59
-14 -9 -10 -14 -23 -11 -28 3 -6 -1 -12 -9 -16 -21 -8 -19 -52 2 -60 15 -6 15
-8 3 -16 -25 -16 -30 -11 -30 26 0 19 -4 33 -8 30 -4 -2 -14 -1 -22 5 -12 7
-10 9 7 9 15 0 23 8 28 28 6 29 57 68 75 57 18 -11 50 14 47 37 -1 16 3 23 18
23 14 0 19 6 17 20 -2 11 -7 22 -11 25 -4 3 -10 13 -14 23 -5 13 -13 16 -33
11 -39 -10 -26 18 14 31 24 7 32 15 32 33 0 15 -7 26 -20 29 -11 3 -20 12 -20
19 0 16 -26 19 -35 4 -9 -15 -28 -12 -22 4 10 25 -45 27 -70 3 -13 -11 -26
-18 -29 -15 -11 11 17 49 43 59 17 6 23 14 19 25 -3 8 1 17 9 20 25 10 -5 46
-32 39 -27 -6 -29 2 -6 27 14 16 14 22 3 43 -14 26 -45 34 -53 13 -4 -10 -7
-10 -18 -1 -10 10 -16 9 -31 -4 -10 -9 -18 -24 -18 -35 0 -31 -19 -20 -22 14
-3 29 -7 33 -35 34 -26 1 -33 -2 -33 -17 0 -11 -5 -16 -13 -13 -18 7 -42 -15
-65 -59 -16 -30 -21 -34 -25 -18 -3 11 8 35 29 61 35 45 41 60 23 60 -6 0 -3
7 5 16 20 19 20 33 1 40 -8 4 -12 10 -9 15 11 18 -27 21 -46 4 -26 -23 -39
-11 -16 14 16 18 16 20 -5 40 -26 24 -45 27 -52 9 -4 -10 -8 -10 -15 1 -13 18
-46 6 -60 -22 -10 -22 -11 -21 -12 6 -3 34 -3 60 0 95 1 26 2 27 12 5 14 -28
47 -40 60 -22 7 11 11 11 15 2 7 -19 26 -16 52 8 21 20 21 22 5 40 -23 25 -10
37 16 14 19 -17 57 -14 46 4 -3 5 1 11 9 15 19 7 19 21 -1 40 -8 9 -11 16 -5
16 18 0 12 15 -23 60 -21 26 -32 50 -29 61 4 16 9 12 25 -18 23 -44 47 -66 65
-59 8 3 13 -2 13 -13 0 -15 7 -18 33 -17 28 1 32 5 35 34 3 34 22 45 22 14 0
-11 8 -26 18 -35 15 -13 21 -14 31 -4 11 9 14 9 18 0 8 -22 39 -14 53 12 11
21 11 27 -3 43 -23 25 -21 33 6 27 27 -7 57 29 32 39 -8 3 -12 12 -9 20 4 11
-2 19 -19 25 -26 10 -54 48 -43 59 3 3 16 -4 29 -15 25 -24 80 -22 70 3 -6 16
13 19 22 4 9 -15 35 -12 35 4 0 7 9 16 20 19 13 3 20 14 20 29 0 18 -8 26 -32
33 -40 13 -53 41 -14 31 20 -5 28 -2 33 11 4 10 10 20 14 23 4 3 9 14 11 25 2
14 -3 20 -17 20 -15 0 -19 7 -18 23 3 23 -29 48 -47 37 -18 -11 -69 28 -75 57
-5 20 -13 28 -28 28 -17 0 -19 2 -7 9 8 6 18 7 22 5 4 -3 8 11 8 30 0 37 5 42
30 26 12 -8 12 -10 -3 -16 -21 -8 -23 -52 -2 -60 8 -4 12 -10 9 -16 -3 -5 2
-18 11 -28 14 -15 26 -18 59 -14 32 5 47 2 59 -11 23 -23 57 -11 57 20 0 13 4
26 9 30 6 3 10 -3 10 -12 0 -31 14 -78 25 -85 5 -4 16 2 24 13 15 22 34 26 26
4 -7 -18 32 -75 52 -75 8 0 14 9 14 19 0 26 18 37 26 17 8 -20 54 -21 54 -2 0
7 9 16 20 19 30 8 27 53 -4 61 -26 6 -40 38 -23 55 8 8 8 11 -1 11 -24 0 -11
19 16 22 19 2 27 8 26 21 -1 9 2 17 7 17 5 0 9 -5 9 -11 0 -5 5 -7 10 -4 6 3
10 -1 10 -9 0 -9 -7 -16 -15 -16 -9 0 -20 -12 -25 -26 -13 -33 -13 -34 8 -34
10 0 28 -8 42 -17 17 -12 25 -13 28 -5 6 19 22 14 22 -8 0 -11 4 -20 9 -20 4
0 12 -15 17 -32 8 -26 16 -34 37 -36 25 -3 27 -1 27 33 0 28 5 38 20 42 11 3
20 12 20 21 0 13 3 12 15 -4 12 -17 12 -20 -2 -31 -13 -10 -14 -15 -3 -28 7
-8 19 -15 26 -15 8 0 17 -13 21 -30 6 -32 20 -39 29 -16 7 18 44 28 45 13 1
-7 1 -20 0 -29 -1 -10 3 -18 8 -18 6 0 11 -7 11 -15 0 -11 7 -14 24 -9 20 5
24 1 29 -25 4 -19 13 -31 22 -31 9 0 18 -8 22 -17 7 -21 60 -73 74 -73 19 0
49 41 49 68 0 15 5 33 11 39 8 8 8 17 0 31 -9 17 -7 26 14 48 22 24 24 29 10
36 -8 5 -15 16 -15 24 0 18 49 66 60 59 4 -3 11 2 14 11 4 9 5 18 4 18 -38 23
-59 39 -54 43 3 4 1 12 -5 20 -11 13 -9 15 21 17 8 1 19 11 25 23 12 28 35 34
58 14 16 -13 20 -13 38 6 19 18 19 21 5 36 -9 8 -16 24 -16 35 0 15 -5 19 -20
15 -15 -4 -20 0 -20 15 0 14 -8 22 -22 24 -21 3 -21 4 -4 21 18 18 18 18 -3
24 -11 3 -21 9 -21 13 0 14 33 21 41 8 6 -9 13 -8 28 6 11 10 25 15 30 11 7
-4 11 4 11 19 0 21 4 24 28 22 35 -5 34 -4 25 -18 -15 -24 -8 -33 32 -44 49
-13 55 -10 55 24 0 31 32 56 60 47 10 -3 21 -1 25 5 9 15 -17 71 -31 66 -15
-6 -46 32 -38 46 4 6 7 20 8 32 1 14 7 20 18 18 13 -2 16 4 13 25 -2 15 -4 32
-4 37 -1 4 -11 5 -23 2 -13 -4 -27 -8 -33 -9 -5 -2 -16 -6 -22 -10 -8 -5 -13
-3 -13 3 0 6 -4 8 -10 5 -5 -3 -10 -2 -10 4 0 5 5 13 10 16 6 4 7 11 4 17 -5
8 -1 9 10 5 10 -4 24 1 37 14 l20 20 -33 27 c-17 15 -36 26 -41 24 -5 -1 -6 2
-3 7 4 5 -2 15 -11 21 -12 7 -13 10 -3 7 8 -2 24 0 34 6 16 8 18 6 12 -8 -4
-12 2 -20 24 -28 16 -6 30 -15 30 -19 0 -4 5 -8 10 -8 6 0 10 12 10 28 l0 27
19 -24 c18 -23 20 -24 36 -8 9 9 21 17 26 17 6 0 9 6 8 13 -1 6 -1 21 0 31 1
18 2 18 14 4 6 -9 19 -18 27 -21 11 -4 11 -6 -3 -6 -14 -1 -17 -6 -12 -21 4
-13 0 -23 -14 -32 -29 -18 -26 -41 6 -55 21 -10 28 -10 35 -1 10 18 55 19 62
2 3 -8 13 -14 21 -14 10 0 15 -7 14 -17 -4 -24 18 -63 35 -63 7 0 18 12 25 26
9 20 17 25 38 22 33 -4 43 23 18 48 -15 15 -14 18 6 37 14 13 18 22 11 25 -7
2 -12 9 -12 16 0 9 16 13 54 12 54 0 61 -5 70 -48 0 -4 6 -12 13 -19 10 -10
17 -7 32 12 11 13 20 27 21 32 0 14 53 7 65 -9 10 -14 15 -15 35 -3 17 11 24
11 27 2 4 -10 11 -9 34 2 33 17 36 27 14 45 -8 7 -15 21 -15 31 0 11 -7 19
-16 19 -13 0 -15 7 -11 33 6 37 -5 63 -22 53 -6 -4 -18 -3 -27 2 -14 8 -14 10
0 21 9 8 16 22 16 33 0 15 6 19 28 16 22 -2 26 0 24 17 -2 11 -8 23 -14 26 -5
3 -9 15 -8 25 5 47 1 56 -24 50 -13 -3 -31 -9 -40 -12 -10 -4 -16 -1 -16 9 0
8 -6 18 -12 21 -7 3 -1 4 14 1 15 -3 30 -1 33 5 3 5 20 10 36 10 29 0 30 1 25
38 -3 20 -3 29 0 20 3 -10 12 -18 20 -18 14 0 19 -17 16 -52 -1 -14 6 -18 34
-18 31 0 36 3 31 19 -3 14 2 20 19 24 12 2 28 -1 33 -6 7 -7 14 -1 21 17 14
38 13 41 -17 56 l-28 14 28 4 c15 2 27 10 27 18 0 19 19 18 26 -1 7 -19 14
-18 39 1 16 12 17 17 7 23 -11 6 -8 14 12 34 26 26 26 51 0 61 -8 3 -14 12
-14 20 0 10 -6 13 -15 10 -15 -6 -20 9 -16 49 1 9 -5 24 -13 33 -9 8 -16 22
-16 30 0 8 -5 14 -11 14 -7 0 -9 -9 -6 -21 3 -13 1 -19 -6 -16 -7 2 -13 16
-15 31 -3 24 0 27 20 24 15 -2 25 -11 28 -28z m1079 -2029 c17 -11 7 -41 -14
-41 -8 0 -15 -6 -15 -14 0 -7 -12 -21 -26 -31 -14 -9 -34 -25 -46 -37 -11 -11
-22 -18 -24 -15 -3 2 13 23 36 46 22 22 38 41 35 41 -12 0 24 30 37 31 10 0
10 2 1 6 -14 5 -18 23 -5 23 4 0 13 -4 21 -9z m-155 -156 c-19 -15 -19 -15 0
-30 11 -8 18 -17 15 -19 -2 -2 -15 4 -28 15 l-23 19 23 19 c13 11 26 17 28 15
3 -2 -4 -11 -15 -19z m-3784 -15 c0 -5 -25 -10 -55 -10 -30 0 -55 5 -55 10 0
6 25 10 55 10 30 0 55 -4 55 -10z m3850 -58 c0 -4 14 -16 30 -25 17 -10 30
-24 30 -31 0 -8 9 -16 20 -19 24 -6 26 -32 4 -41 -22 -9 -32 3 -14 14 11 7 12
10 2 10 -7 0 -20 7 -28 15 -9 8 -13 15 -9 15 3 0 -12 18 -35 41 -45 45 -50 55
-20 39 11 -6 20 -14 20 -18z"/>
<path d="M470 2560 c0 -5 5 -10 10 -10 6 0 10 5 10 10 0 6 -4 10 -10 10 -5 0
-10 -4 -10 -10z"/>
<path d="M550 2560 c0 -5 7 -10 15 -10 8 0 15 5 15 10 0 6 -7 10 -15 10 -8 0
-15 -4 -15 -10z"/>
</g>
</svg>
